<?xml version="1.0" encoding="utf-8"?>
<!-- Generator: Adobe Illustrator 24.1.2, SVG Export Plug-In . SVG Version: 6.00 Build 0)  -->
<!DOCTYPE svg PUBLIC "-//W3C//DTD SVG 1.1//EN" "http://www.w3.org/Graphics/SVG/1.1/DTD/svg11.dtd" [
	<!ENTITY ns_extend "http://ns.adobe.com/Extensibility/1.0/">
	<!ENTITY ns_ai "http://ns.adobe.com/AdobeIllustrator/10.0/">
	<!ENTITY ns_graphs "http://ns.adobe.com/Graphs/1.0/">
	<!ENTITY ns_vars "http://ns.adobe.com/Variables/1.0/">
	<!ENTITY ns_imrep "http://ns.adobe.com/ImageReplacement/1.0/">
	<!ENTITY ns_sfw "http://ns.adobe.com/SaveForWeb/1.0/">
	<!ENTITY ns_custom "http://ns.adobe.com/GenericCustomNamespace/1.0/">
	<!ENTITY ns_adobe_xpath "http://ns.adobe.com/XPath/1.0/">
]>
<svg version="1.1" xmlns:x="&ns_extend;" xmlns:i="&ns_ai;" xmlns:graph="&ns_graphs;"
	 xmlns="http://www.w3.org/2000/svg" xmlns:xlink="http://www.w3.org/1999/xlink" x="0px" y="0px" viewBox="0 0 1920 62"
	 style="enable-background:new 0 0 1920 62;" xml:space="preserve">
<style type="text/css">
	.st0{display:none;}
	.st1{display:inline;fill-rule:evenodd;clip-rule:evenodd;}
	.st2{display:inline;}
	.st3{fill:none;stroke:#FFFFFF;stroke-width:5;stroke-miterlimit:10;}
	.st4{display:inline;fill-rule:evenodd;clip-rule:evenodd;fill:#FFFFFF;}
	.st5{fill:#FFFFFF;stroke:#FFFFFF;stroke-width:0.25;stroke-miterlimit:10;}
</style>
<metadata>
	<sfw  xmlns="&ns_sfw;">
		<slices></slices>
		<sliceSourceBounds  bottomLeftOrigin="true" height="1080" width="1920.5" x="-0.5" y="-1080.5"></sliceSourceBounds>
	</sfw>
</metadata>
<g id="Слой_2" class="st0">
	<rect y="-435.5" class="st1" width="1920" height="1080"/>
</g>
<g id="Слой_1" class="st0">
	<g class="st2">
		<line class="st3" x1="-0.5" y1="30.5" x2="1919.5" y2="30.5"/>
	</g>
	<circle class="st4" cx="319.5" cy="30.5" r="16.5"/>
	<circle class="st4" cx="961.5" cy="30.5" r="16.5"/>
	<circle class="st4" cx="1600.5" cy="30.5" r="16.5"/>
</g>
<g id="Слой_3">
	<path class="st5" d="M972,36h-1c-0.4,0-0.7-0.2-0.9-0.6L958.1,2.2C957.9,1.6,958.3,1,959,1h1c0.4,0,0.7,0.2,0.9,0.6l12.1,33.1
		C973.1,35.4,972.7,36,972,36z"/>
	<path class="st5" d="M946.8,36h-0.4c-0.9,0-1.4-0.8-1.2-1.6l11.8-32.5c0.2-0.5,0.6-0.8,1.2-0.8h0.4c0.9,0,1.4,0.8,1.2,1.6
		l-11.8,32.5C947.7,35.7,947.3,36,946.8,36z"/>
</g>
</svg>
